<svg width="84" height="62" viewBox="0 0 84 62" fill="none" xmlns="http://www.w3.org/2000/svg">
<g id="Layer_1" clip-path="url(#clip0_3202_12102)">
<g id="Clip path group">
<mask id="mask0_3202_12102" style="mask-type:luminance" maskUnits="userSpaceOnUse" x="29" y="5" width="46" height="56">
<g id="clippath">
<path id="Vector" d="M73.3203 21.0207C68.8775 8.52453 52.7676 2.675 35.8277 6.66962C33.821 7.00792 31.7932 7.48417 29.7629 8.10261C47.2249 3.41654 64.1345 9.23847 68.7041 22.0895C73.6294 35.9427 62.3499 52.7204 43.5125 59.5615C42.373 59.9753 41.2319 60.3429 40.0924 60.6659C42.7514 60.1871 45.4445 59.4677 48.1287 58.4927C66.967 51.6508 78.2452 34.8747 73.3199 21.0207H73.3203Z" fill="white"/>
</g>
</mask>
<g mask="url(#mask0_3202_12102)">
<g id="Group">
<g id="Group_2">
<g id="Group_3">
<path id="Vector_2" fill-rule="evenodd" clip-rule="evenodd" d="M49.3656 46.4399C40.4561 47.7642 31.5404 44.4984 26.0001 37.8801C20.4595 31.2623 19.1436 22.3058 22.5503 14.4082C18.2495 20.0429 15.9873 27.0865 16.6871 34.4883C17.5241 43.3443 22.428 50.8857 29.5109 55.6473C37.8429 58.754 47.3613 57.3927 54.4564 52.0806C61.5515 46.768 65.1357 38.3182 63.8497 29.9355C64.6313 38.2032 58.1465 45.5926 49.3656 46.4403V46.4399Z" fill="url(#paint0_linear_3202_12102)"/>
<path id="Vector_3" fill-rule="evenodd" clip-rule="evenodd" d="M17.6881 23.9727C16.7137 27.3089 16.3433 30.8549 16.6868 34.4883C17.5239 43.3443 22.4278 50.8857 29.5107 55.6473C29.6384 55.6953 29.7669 55.742 29.8954 55.7874C29.7669 55.7416 29.6388 55.6953 29.5107 55.6473C35.3063 56.8197 41.1926 56.0077 46.2649 53.6074C39.505 53.7071 32.8644 51.5509 27.5951 47.3843C20.3589 41.6626 16.6482 32.8944 17.6881 23.9727Z" fill="url(#paint1_linear_3202_12102)"/>
<path id="Vector_4" fill-rule="evenodd" clip-rule="evenodd" d="M29.5107 55.6474C37.8427 58.754 47.3612 57.3928 54.4562 52.0806C61.5513 46.768 65.1356 38.3183 63.8495 29.9355C64.3649 35.3865 61.721 40.4554 57.3433 43.5192V43.52C51.8925 52.9291 40.5362 57.8771 29.5107 55.6474Z" fill="url(#paint2_linear_3202_12102)"/>
<path id="Vector_5" fill-rule="evenodd" clip-rule="evenodd" d="M49.3653 46.4399C40.4559 47.7642 31.5401 44.4984 25.9999 37.8801C20.4593 31.2623 19.1434 22.3058 22.55 14.4082C18.4928 22.31 19.5357 31.6405 25.2376 38.4515C30.9387 45.2624 40.3022 48.3622 49.3653 46.4403V46.4399Z" fill="url(#paint3_linear_3202_12102)"/>
</g>
<g id="Group_4">
<path id="Vector_6" fill-rule="evenodd" clip-rule="evenodd" d="M27.566 30.2222C26.2262 22.8794 30.1847 15.3007 37.9404 10.3616C45.6957 5.42214 56.0601 3.87837 65.1018 6.31521C58.6905 3.02095 50.6101 1.49289 42.0535 2.44581C31.8156 3.58591 23.0082 8.0432 17.3617 14.172C13.5997 21.2571 14.9685 29.105 20.9485 34.7385C26.9284 40.3724 36.6044 42.9294 46.3056 41.4395C36.7476 42.5041 28.3577 37.4818 27.566 30.2222Z" fill="url(#paint4_linear_3202_12102)"/>
<path id="Vector_7" fill-rule="evenodd" clip-rule="evenodd" d="M54.1676 2.75134C50.3381 2.10828 46.2532 1.97797 42.0536 2.44572C31.8157 3.58583 23.0083 8.04311 17.3618 14.1719C15.8863 19.0503 16.6982 23.9049 19.3601 28.0035C19.3891 22.3866 22.0183 16.7561 26.939 12.1646C33.696 5.8601 43.894 2.33452 54.1681 2.75176L54.1676 2.75134Z" fill="url(#paint5_linear_3202_12102)"/>
<path id="Vector_8" fill-rule="evenodd" clip-rule="evenodd" d="M27.566 30.223C26.2262 22.8802 30.1847 15.3014 37.9405 10.3624C45.6958 5.42289 56.0601 3.87912 65.1019 6.31596C56.0693 3.33835 45.2787 4.67329 37.2979 9.75665C29.3174 14.8396 25.5404 22.7821 27.5665 30.223H27.566Z" fill="url(#paint6_linear_3202_12102)"/>
<path id="Vector_9" fill-rule="evenodd" clip-rule="evenodd" d="M43.4387 15.1501C53.1399 13.6606 62.8158 16.2172 68.7958 21.8511C74.7761 27.485 76.1445 35.3324 72.3826 42.4176C77.1008 37.2951 79.6112 31.0042 78.9026 24.5052C78.0547 16.7291 72.7732 10.2577 65.1019 6.31616C56.0605 3.8789 45.6962 5.42267 37.9405 10.3626C30.1848 15.3016 26.2263 22.8804 27.5661 30.2232C26.7744 22.9632 33.8803 16.2146 43.4387 15.1501Z" fill="url(#paint7_linear_3202_12102)"/>
<path id="Vector_10" fill-rule="evenodd" clip-rule="evenodd" d="M65.1014 6.31616C56.06 3.8789 45.6957 5.42267 37.94 10.3626C30.1843 15.3016 26.2258 22.8804 27.5656 30.2232C27.0435 25.4365 29.9549 20.8731 34.7392 18.0131V18.0122C40.7351 9.52086 53.1234 4.74862 65.1014 6.31616Z" fill="url(#paint8_linear_3202_12102)"/>
<path id="Vector_11" fill-rule="evenodd" clip-rule="evenodd" d="M43.4387 15.15C53.1398 13.6605 62.8158 16.2171 68.7957 21.851C74.7761 27.4849 76.1445 35.3323 72.3825 42.4175C76.8517 35.3052 75.7833 27.1181 69.6286 21.3204C63.4752 15.5227 53.3108 13.1283 43.4382 15.1504L43.4387 15.15Z" fill="url(#paint9_linear_3202_12102)"/>
</g>
<path id="Vector_12" fill-rule="evenodd" clip-rule="evenodd" d="M22.5499 14.4086C19.1429 22.3062 20.4591 31.2628 25.9998 37.8806C31.54 44.4988 40.4558 47.765 49.3652 46.4403C43.5759 46.9993 38.2344 44.5743 35.0424 40.488H35.0415C25.1337 35.4747 20.037 24.8334 22.5503 14.4082L22.5499 14.4086Z" fill="url(#paint10_linear_3202_12102)"/>
<path id="Vector_13" fill-rule="evenodd" clip-rule="evenodd" d="M78.2125 38.9685C79.1869 35.6322 79.5574 32.0863 79.2138 28.4533C78.3768 19.5973 73.4728 12.0555 66.39 7.29384C66.2623 7.24587 66.1338 7.19918 66.0052 7.15376C66.1338 7.19961 66.2619 7.24587 66.39 7.29384C60.5944 6.12147 54.7081 6.93347 49.6357 9.33381C56.3956 9.23406 63.0363 11.3903 68.3056 15.5573C75.5418 21.2786 79.2525 30.0472 78.2125 38.9685Z" fill="url(#paint11_linear_3202_12102)"/>
<g id="Group_5">
<path id="Vector_14" fill-rule="evenodd" clip-rule="evenodd" d="M63.8493 29.9366C65.1353 38.3189 61.551 46.7691 54.456 52.0816C47.3609 57.3938 37.8425 58.7555 29.5105 55.6484C35.43 59.6282 42.8711 61.6668 50.7323 60.9079C60.1377 60 68.2038 55.2749 73.3505 48.5331C76.7576 40.6356 75.4413 31.6794 69.9006 25.0612C64.3604 18.443 55.4447 15.1767 46.5352 16.5015C55.3161 15.6538 63.0677 21.6693 63.8493 29.937V29.9366Z" fill="url(#paint12_linear_3202_12102)"/>
<path id="Vector_15" fill-rule="evenodd" clip-rule="evenodd" d="M39.5908 60.105C43.1167 60.9794 46.874 61.2812 50.7322 60.9085C60.1376 60.0006 68.2037 55.2755 73.3504 48.5337C73.4025 48.4128 73.4537 48.2905 73.5037 48.1687C73.4537 48.2905 73.4025 48.4123 73.3504 48.5337C74.6713 43.0535 73.8889 37.5147 71.4113 32.7637C71.426 39.1361 69.05 45.4262 64.559 50.4506C58.3921 57.3498 49.0412 60.9658 39.5908 60.105Z" fill="url(#paint13_linear_3202_12102)"/>
<path id="Vector_16" fill-rule="evenodd" clip-rule="evenodd" d="M73.3505 48.5331C76.7575 40.6356 75.4412 31.6794 69.9006 25.0612C64.3604 18.443 55.4446 15.1767 46.5352 16.5015C52.3244 15.9425 57.666 18.3674 60.858 22.4537H60.8588C70.7666 27.4675 75.8633 38.1083 73.3501 48.5336L73.3505 48.5331Z" fill="url(#paint14_linear_3202_12102)"/>
<path id="Vector_17" fill-rule="evenodd" clip-rule="evenodd" d="M63.8493 29.9375C65.1353 38.3198 61.551 46.77 54.456 52.0826C47.3609 57.3947 37.8425 58.7564 29.5105 55.6493C37.8383 59.3689 47.7503 58.2606 55.0515 52.7935C62.3524 47.3265 65.767 38.4569 63.8493 29.9375Z" fill="url(#paint15_linear_3202_12102)"/>
</g>
</g>
<g id="Clip path group_2">
<mask id="mask1_3202_12102" style="mask-type:luminance" maskUnits="userSpaceOnUse" x="0" y="6" width="72" height="56">
<g id="clippath-1">
<path id="Vector_18" d="M70.3001 21.6303C75.2254 35.4844 63.9471 52.2608 45.1089 59.1023C26.2698 65.943 7.00522 60.2577 2.07988 46.4037C-2.84588 32.5509 8.43322 15.7732 27.2711 8.93294C46.1097 2.09187 65.3743 7.77755 70.3001 21.6303Z" fill="white"/>
</g>
</mask>
<g mask="url(#mask1_3202_12102)">
<g id="Group_6">
<g id="Group_7">
<g id="Group_8">
<path id="Vector_19" fill-rule="evenodd" clip-rule="evenodd" d="M53.3447 18.5349C61.6489 21.226 68.0207 27.9104 70.0422 36.0529C72.0641 44.1954 69.4265 52.5488 63.1298 57.945C69.248 54.9016 74.1884 49.7541 76.7055 43.0179C79.7173 34.9586 78.6387 26.2877 74.4921 19.0935C68.5608 12.7996 59.7114 9.87798 51.3005 11.4358C42.8896 12.9944 36.2057 18.7938 33.7844 26.6358C36.5963 19.1117 45.3533 15.4847 53.3447 18.5349Z" fill="url(#paint16_linear_3202_12102)"/>
<path id="Vector_20" fill-rule="evenodd" clip-rule="evenodd" d="M71.3949 51.7283C73.6507 49.2482 75.4702 46.3254 76.7058 43.0192C79.7176 34.9599 78.6391 26.289 74.4924 19.0948C69.9493 15.5764 64.4893 13.7436 59.0667 13.6426C64.9853 16.4712 69.8472 21.2095 72.6688 27.104C76.5433 35.1989 76.0666 44.4212 71.3953 51.7288L71.3949 51.7283Z" fill="url(#paint17_linear_3202_12102)"/>
<path id="Vector_21" fill-rule="evenodd" clip-rule="evenodd" d="M74.4921 19.0935C68.5608 12.7996 59.7114 9.87799 51.3005 11.4358C42.8896 12.9944 36.2057 18.7938 33.7844 26.6358C35.6383 21.6751 40.0769 18.4088 45.1761 17.6333L45.1769 17.6325C53.8881 11.8038 65.8493 12.4001 74.4921 19.0935Z" fill="url(#paint18_linear_3202_12102)"/>
<path id="Vector_22" fill-rule="evenodd" clip-rule="evenodd" d="M53.3447 18.5352C61.649 21.2262 68.0208 27.9107 70.0422 36.0532C72.0641 44.1956 69.4265 52.5491 63.1299 57.9452C69.9935 52.8258 73.0268 44.2652 70.9461 35.8855C68.8662 27.5062 62.0349 20.7729 53.3447 18.5352Z" fill="url(#paint19_linear_3202_12102)"/>
</g>
<path id="Vector_23" fill-rule="evenodd" clip-rule="evenodd" d="M62.7228 37.681C60.3011 45.5225 53.6172 51.3228 45.2067 52.881C36.7958 54.4396 27.9464 51.5176 22.0151 45.2237C25.4806 51.2366 31.0884 56.2177 38.2427 58.9483C46.8023 62.2153 55.8092 61.5859 63.1302 57.9453C69.4264 52.5491 72.0644 44.1952 70.0426 36.0532C68.0211 27.9107 61.6493 21.2263 53.345 18.5352C61.3364 21.5853 65.5351 30.1569 62.7232 37.6814L62.7228 37.681Z" fill="url(#paint20_linear_3202_12102)"/>
<path id="Vector_24" fill-rule="evenodd" clip-rule="evenodd" d="M28.8965 53.4449C31.5925 55.7255 34.7311 57.6084 38.2423 58.9485C46.8019 62.2156 55.8088 61.5861 63.1298 57.9455C63.2264 57.8623 63.3222 57.7786 63.4171 57.6942C63.3222 57.7786 63.2264 57.8618 63.1298 57.9455C66.5919 53.7513 68.2509 48.5988 68.1031 43.4004C65.4251 48.9464 60.7035 53.3897 54.6782 55.8206C46.4042 59.1586 36.7484 58.2689 28.8965 53.4453V53.4449Z" fill="url(#paint21_linear_3202_12102)"/>
<path id="Vector_25" fill-rule="evenodd" clip-rule="evenodd" d="M63.1299 57.9452C69.4261 52.549 72.0641 44.1952 70.0422 36.0532C68.0208 27.9107 61.649 21.2262 53.3447 18.5352C58.6136 20.5463 62.2328 24.9577 63.2823 29.8866L63.2832 29.8874C69.7793 38.518 69.7167 49.9666 63.1299 57.9457V57.9452Z" fill="url(#paint22_linear_3202_12102)"/>
<path id="Vector_26" fill-rule="evenodd" clip-rule="evenodd" d="M62.7228 37.6816C60.3011 45.5232 53.6172 51.3234 45.2067 52.8816C36.7958 54.4403 27.9464 51.5183 22.0151 45.2243C27.6839 52.0489 36.7685 55.3605 45.4243 53.7569C54.0796 52.1533 60.7933 45.9149 62.7232 37.6816H62.7228Z" fill="url(#paint23_linear_3202_12102)"/>
<path id="Vector_27" fill-rule="evenodd" clip-rule="evenodd" d="M43.1622 45.7831C34.858 43.092 28.4862 36.4076 26.4647 28.2651C24.4428 20.1222 27.0804 11.7692 33.3771 6.37305C27.2589 9.41644 22.3185 14.5639 19.8014 21.2997C16.7896 29.359 17.8681 38.0303 22.0148 45.2245C27.946 51.5181 36.7954 54.4401 45.2063 52.8819C53.6173 51.3237 60.3012 45.5238 62.7225 37.6818C59.9106 45.2059 51.1531 48.8333 43.1622 45.7831Z" fill="url(#paint24_linear_3202_12102)"/>
<path id="Vector_28" fill-rule="evenodd" clip-rule="evenodd" d="M25.1124 12.5898C22.8565 15.07 21.0371 17.9928 19.8019 21.2985C16.7901 29.3578 17.8686 38.0292 22.0153 45.2234C26.5584 48.7418 32.0184 50.5746 37.441 50.676C31.5224 47.8474 26.6605 43.1091 23.8389 37.2142C19.9644 29.1197 20.4411 19.897 25.1119 12.5898H25.1124Z" fill="url(#paint25_linear_3202_12102)"/>
<path id="Vector_29" fill-rule="evenodd" clip-rule="evenodd" d="M22.0149 45.2243C27.9461 51.5179 36.7955 54.4399 45.2065 52.8817C53.6174 51.3235 60.3013 45.5236 62.7226 37.6816C60.8687 42.6423 56.4305 45.9086 51.3309 46.6845L51.3301 46.6853C42.6188 52.5141 30.6577 51.9177 22.0149 45.2243Z" fill="url(#paint26_linear_3202_12102)"/>
<path id="Vector_30" fill-rule="evenodd" clip-rule="evenodd" d="M43.1623 45.7831C34.8581 43.092 28.4863 36.4076 26.4648 28.2651C24.4429 20.1222 27.0805 11.7692 33.3772 6.37305C26.5135 11.4925 23.4803 20.0531 25.561 28.4328C27.6408 36.8121 34.4721 43.5454 43.1623 45.7831Z" fill="url(#paint27_linear_3202_12102)"/>
<g id="Group_9">
<path id="Vector_31" fill-rule="evenodd" clip-rule="evenodd" d="M33.4092 24.8599C35.7545 17.5324 41.369 11.8416 48.1226 9.94594C54.8762 8.05071 61.7348 10.2409 66.0965 15.6859C63.6748 10.3619 59.4983 6.10328 53.9737 3.99454C47.3637 1.47154 40.1876 2.54755 34.1854 6.29301C28.9001 11.592 26.3557 19.4008 27.517 26.7585C28.6783 34.1161 33.368 39.8952 39.8071 41.9037C33.636 39.5484 30.7716 31.917 33.4092 24.859V24.8599Z" fill="url(#paint28_linear_3202_12102)"/>
<path id="Vector_32" fill-rule="evenodd" clip-rule="evenodd" d="M63.3355 12.5493C61.0465 10.424 58.3484 8.70962 55.2976 7.54489C47.8598 4.70609 39.8592 5.71885 33.2219 9.62136C33.1329 9.70711 33.0447 9.7937 32.9569 9.88114C33.0447 9.79412 33.1333 9.70711 33.2219 9.62136C29.977 13.8987 28.2878 19.0393 28.1958 24.1465C30.8044 18.5741 35.1745 13.9967 40.6131 11.3417C48.0811 7.69643 56.5912 8.14848 63.3355 12.5493Z" fill="url(#paint29_linear_3202_12102)"/>
<path id="Vector_33" fill-rule="evenodd" clip-rule="evenodd" d="M33.794 6.53125C26.8821 11.6927 24.3142 20.0725 27.0643 28.493C29.8141 36.9134 37.4606 44.0847 47.1034 47.2865C40.9693 44.9451 36.592 40.2442 35.1271 35.157L35.1263 35.1562C27.2324 25.9916 26.6889 14.3121 33.794 6.53125Z" fill="url(#paint30_linear_3202_12102)"/>
<path id="Vector_34" fill-rule="evenodd" clip-rule="evenodd" d="M32.8557 26.281C35.3358 18.4616 41.5014 12.4643 49.0144 10.5632C56.5273 8.66241 64.2364 11.1485 69.2172 17.0799C64.4914 10.6149 56.5907 7.75576 48.8594 9.7121C41.1284 11.6685 34.9175 18.0986 32.8557 26.2814V26.281Z" fill="url(#paint31_linear_3202_12102)"/>
</g>
</g>
</g>
</g>
</g>
</g>
</g>
</g>
<g id="Group_10">
<path id="Vector_35" d="M79.8726 39.4986L77.4063 37.8585L73.1946 35.057L68.9824 37.8585L66.517 39.4986L67.2994 36.6224L68.6367 31.7093L64.6963 28.5249L62.3926 26.6624L65.3401 26.5249L70.3768 26.2897L72.1555 21.5217L73.1958 18.7305L74.2366 21.5217L76.0149 26.2897L81.0511 26.5249L83.9999 26.6624L81.6941 28.5249L77.7541 31.7093L79.0905 36.6224L79.8726 39.4986Z" fill="#D27D00"/>
<path id="Vector_36" d="M79.8726 39.129L77.4063 37.4889L73.1946 34.687L68.9824 37.4889L66.517 39.129L67.2994 36.252L68.6367 31.3393L64.6963 28.155L62.3926 26.2928L65.3401 26.1549L70.3768 25.9202L72.1555 21.1522L73.1958 18.3613L74.2366 21.1522L76.0149 25.9202L81.0511 26.1549L83.9999 26.2928L81.6941 28.155L77.7541 31.3393L79.0905 36.252L79.8726 39.129Z" fill="url(#paint32_linear_3202_12102)"/>
<g id="Group_11">
<g id="Group_12">
<g id="Group_13">
<path id="Vector_37" d="M73.1963 21.5469L75.2321 27.0076L80.9999 27.2754L76.4887 30.9211L78.0192 36.5495L73.1963 33.341L68.3718 36.5495L69.9018 30.9211L65.3906 27.2754L71.1597 27.0076L73.1963 21.5469Z" fill="url(#paint33_linear_3202_12102)"/>
<path id="Vector_38" d="M73.1962 21.5469L73.1958 21.5494V33.341H73.1962L78.0191 36.5495L76.4886 30.9211L80.9998 27.2754L75.232 27.0076L73.1962 21.5469Z" fill="url(#paint34_linear_3202_12102)"/>
<path id="Vector_39" d="M73.1958 29.8521L76.4949 30.9158L80.9998 27.2752L75.232 27.0074L75.1211 26.709L73.1958 29.7375V29.8521Z" fill="url(#paint35_linear_3202_12102)"/>
<path id="Vector_40" d="M80.9998 27.2754L75.232 27.0076L73.1962 21.5469L73.1958 21.5494V29.8438L80.9998 27.2754Z" fill="url(#paint36_linear_3202_12102)"/>
<path id="Vector_41" d="M75.232 27.0076L73.1962 21.5469L73.1958 21.5494V29.8438H73.1971L75.2324 27.0076H75.232Z" fill="url(#paint37_linear_3202_12102)"/>
<path id="Vector_42" d="M78.0077 36.5499L73.1958 29.8574V33.3495H73.1962L78.0077 36.5499Z" fill="url(#paint38_linear_3202_12102)"/>
</g>
<g id="Group_14">
<path id="Vector_43" d="M73.1942 21.5469L73.1959 21.5494V33.341H73.1942L68.3718 36.5495L69.9018 30.9211L65.3906 27.2754L71.1589 27.0076L73.1942 21.5469Z" fill="url(#paint39_linear_3202_12102)"/>
<path id="Vector_44" d="M73.1959 29.8521L69.8964 30.9158L65.3906 27.2752L71.1589 27.0074L71.2702 26.709L73.1959 29.7375V29.8521Z" fill="url(#paint40_linear_3202_12102)"/>
<path id="Vector_45" d="M65.3906 27.2754L71.1589 27.0076L73.1942 21.5469L73.1959 21.5494V29.8438L65.3906 27.2754Z" fill="url(#paint41_linear_3202_12102)"/>
<path id="Vector_46" d="M71.1588 27.0076L73.1941 21.5469L73.1958 21.5494V29.8438H73.1937L71.158 27.0076H71.1588Z" fill="url(#paint42_linear_3202_12102)"/>
<path id="Vector_47" d="M68.3831 36.5499L73.1958 29.8574V33.3495H73.1942L68.3831 36.5499Z" fill="url(#paint43_linear_3202_12102)"/>
</g>
</g>
<path id="Vector_48" d="M73.1964 24.9648L74.304 27.9378L77.4422 28.0834L74.9882 30.0673L75.8206 33.1302L73.1964 31.3844L70.5702 33.1302L71.4035 30.0673L68.949 28.0834L72.0876 27.9378L73.1964 24.9648Z" fill="white"/>
</g>
</g>
<g id="Group_15">
<path id="Vector_49" d="M66.5873 56.3789L64.7263 55.1407L61.5485 53.0269L58.37 55.1407L56.5102 56.3789L57.1003 54.2086L58.1092 50.5013L55.1364 48.0989L53.3984 46.6939L55.6219 46.5899L59.4225 46.4133L60.7644 42.8152L61.549 40.709L62.3344 42.8152L63.6763 46.4133L67.4756 46.5899L69.7007 46.6939L67.9611 48.0989L64.9888 50.5013L65.9968 54.2086L66.5873 56.3789Z" fill="#D27D00"/>
<path id="Vector_50" d="M66.5873 56.0998L64.7263 54.8638L61.5485 52.7487L58.37 54.8638L56.5102 56.0998L57.1003 53.93L58.1092 50.2231L55.1364 47.8207L53.3984 46.4157L55.6219 46.3117L59.4225 46.1347L60.7644 42.537L61.549 40.4316L62.3344 42.537L63.6763 46.1347L67.4756 46.3117L69.7007 46.4157L67.9611 47.8207L64.9888 50.2231L65.9968 53.93L66.5873 56.0998Z" fill="url(#paint44_linear_3202_12102)"/>
<g id="Group_16">
<g id="Group_17">
<g id="Group_18">
<path id="Vector_51" d="M61.5495 42.8359L63.0854 46.9566L67.4379 47.1587L64.0338 49.9092L65.1888 54.1559L61.5495 51.7348L57.9093 54.1559L59.0635 49.9092L55.6606 47.1587L60.0131 46.9566L61.5495 42.8359Z" fill="url(#paint45_linear_3202_12102)"/>
<path id="Vector_52" d="M61.5495 42.8359L61.5491 42.8376V51.7348H61.5495L65.1888 54.1559L64.0338 49.9092L67.4379 47.1587L63.0854 46.9566L61.5495 42.8359Z" fill="url(#paint46_linear_3202_12102)"/>
<path id="Vector_53" d="M61.5491 49.1026L64.0388 49.9061L67.4379 47.1594L63.0854 46.9574L63.0014 46.7324L61.5491 49.0169V49.1026Z" fill="url(#paint47_linear_3202_12102)"/>
<path id="Vector_54" d="M67.4379 47.1587L63.0854 46.9566L61.5495 42.8359L61.5491 42.8376V49.0963L67.4379 47.1587Z" fill="url(#paint48_linear_3202_12102)"/>
<path id="Vector_55" d="M63.0854 46.9566L61.5495 42.8359L61.5491 42.8376V49.0963H61.5503L63.0854 46.9566Z" fill="url(#paint49_linear_3202_12102)"/>
<path id="Vector_56" d="M65.1804 54.1557L61.5491 49.1055V51.7405H61.5495L65.1804 54.1557Z" fill="url(#paint50_linear_3202_12102)"/>
</g>
<g id="Group_19">
<path id="Vector_57" d="M61.5478 42.8359L61.549 42.8376V51.7348H61.5478L57.9093 54.1559L59.0635 49.9092L55.6606 47.1587L60.0127 46.9566L61.5478 42.8359Z" fill="url(#paint51_linear_3202_12102)"/>
<path id="Vector_58" d="M61.549 49.1026L59.0597 49.9061L55.6606 47.1594L60.0127 46.9574L60.0963 46.7324L61.549 49.0169V49.1026Z" fill="url(#paint52_linear_3202_12102)"/>
<path id="Vector_59" d="M55.6606 47.1587L60.0127 46.9566L61.5478 42.8359L61.549 42.8376V49.0963L55.6606 47.1587Z" fill="url(#paint53_linear_3202_12102)"/>
<path id="Vector_60" d="M60.0128 46.9566L61.5479 42.8359L61.5492 42.8376V49.0963H61.5479L60.012 46.9566H60.0128Z" fill="url(#paint54_linear_3202_12102)"/>
<path id="Vector_61" d="M57.9177 54.1557L61.549 49.1055V51.7405H61.5478L57.9177 54.1557Z" fill="url(#paint55_linear_3202_12102)"/>
</g>
</g>
<path id="Vector_62" d="M61.5496 45.416L62.3858 47.6585L64.7533 47.7692L62.9016 49.2655L63.5299 51.5771L61.5496 50.2596L59.568 51.5771L60.1967 49.2655L58.345 47.7692L60.7134 47.6585L61.5496 45.416Z" fill="white"/>
</g>
</g>
<g id="Group_20">
<path id="Vector_63" d="M67.197 17.0343L65.3359 15.7965L62.1591 13.6823L58.9801 15.7965L57.1203 17.0343L57.7108 14.864L58.7193 11.1572L55.7465 8.75428L54.0085 7.34889L56.2324 7.24532L60.033 7.06874L61.3745 3.47057L62.1595 1.36523L62.9445 3.47057L64.2868 7.06874L68.0857 7.24532L70.3113 7.34889L68.572 8.75428L65.5993 11.1572L66.6064 14.864L67.197 17.0343Z" fill="#D27D00"/>
<path id="Vector_64" d="M67.197 16.755L65.3359 15.5177L62.1591 13.4038L58.9801 15.5177L57.1203 16.755L57.7108 14.5847L58.7193 10.8779L55.7465 8.47583L54.0085 7.07001L56.2324 6.96602L60.033 6.78944L61.3745 3.1917L62.1595 1.08594L62.9445 3.1917L64.2868 6.78944L68.0857 6.96602L70.3113 7.07001L68.572 8.47583L65.5993 10.8779L66.6064 14.5847L67.197 16.755Z" fill="url(#paint56_linear_3202_12102)"/>
<g id="Group_21">
<g id="Group_22">
<g id="Group_23">
<path id="Vector_65" d="M62.16 3.49023L63.6959 7.61049L68.0476 7.81296L64.6443 10.5626L65.7997 14.8094L62.16 12.3887L58.5198 14.8094L59.674 10.5626L56.2708 7.81296L60.6232 7.61049L62.16 3.49023Z" fill="url(#paint57_linear_3202_12102)"/>
<path id="Vector_66" d="M62.1601 3.49023L62.1597 3.49193V12.3887H62.1601L65.7998 14.8094L64.6444 10.5626L68.0477 7.81296L63.696 7.61049L62.1601 3.49023Z" fill="url(#paint58_linear_3202_12102)"/>
<path id="Vector_67" d="M62.1597 9.75624L64.6494 10.5589L68.0477 7.81262L63.696 7.61016L63.612 7.38477L62.1597 9.67007V9.75624Z" fill="url(#paint59_linear_3202_12102)"/>
<path id="Vector_68" d="M68.0477 7.81296L63.696 7.61049L62.1601 3.49023L62.1597 3.49193V9.75063L68.0477 7.81296Z" fill="url(#paint60_linear_3202_12102)"/>
<path id="Vector_69" d="M63.696 7.61049L62.1601 3.49023L62.1597 3.49193V9.75063H62.1605L63.696 7.61049Z" fill="url(#paint61_linear_3202_12102)"/>
<path id="Vector_70" d="M65.7902 14.8096L62.1597 9.75977V12.3953H62.1601L65.7902 14.8096Z" fill="url(#paint62_linear_3202_12102)"/>
</g>
<g id="Group_24">
<path id="Vector_71" d="M62.1579 3.49023L62.1596 3.49193V12.3887H62.1579L58.5198 14.8094L59.674 10.5626L56.2708 7.81296L60.6232 7.61049L62.1579 3.49023Z" fill="url(#paint63_linear_3202_12102)"/>
<path id="Vector_72" d="M62.1596 9.75624L59.6702 10.5589L56.2708 7.81262L60.6232 7.61016L60.7064 7.38477L62.1596 9.67007V9.75624Z" fill="url(#paint64_linear_3202_12102)"/>
<path id="Vector_73" d="M56.2708 7.81296L60.6232 7.61049L62.1579 3.49023L62.1596 3.49193V9.75063L56.2708 7.81296Z" fill="url(#paint65_linear_3202_12102)"/>
<path id="Vector_74" d="M60.6233 7.61049L62.158 3.49023L62.1597 3.49193V9.75063H62.158L60.6221 7.61049H60.6233Z" fill="url(#paint66_linear_3202_12102)"/>
<path id="Vector_75" d="M58.5283 14.8096L62.1596 9.75977V12.3953H62.158L58.5283 14.8096Z" fill="url(#paint67_linear_3202_12102)"/>
</g>
</g>
<path id="Vector_76" d="M62.1599 6.06836L62.9957 8.31164L65.3637 8.422L63.5119 9.91866L64.1402 12.2294L62.1599 10.9123L60.1788 12.2294L60.8071 9.91866L58.9553 8.422L61.3233 8.31164L62.1599 6.06836Z" fill="white"/>
</g>
</g>
<g id="Group_25">
<path id="Vector_77" d="M48.4542 11.9793L47.0564 11.0502L44.6699 9.46185L42.2818 11.0502L40.8849 11.9793L41.3284 10.3498L42.0857 7.56535L39.853 5.76011L38.5476 4.70447L40.2184 4.62679L43.0727 4.49394L44.0807 1.79096L44.6699 0.208984L45.26 1.79096L46.2685 4.49394L49.1219 4.62679L50.794 4.70447L49.4869 5.76011L47.2546 7.56535L48.011 10.3498L48.4542 11.9793Z" fill="#D27D00"/>
<path id="Vector_78" d="M48.4542 11.7695L47.0564 10.8408L44.6699 9.25244L42.2818 10.8408L40.8849 11.7695L41.3284 10.14L42.0857 7.35509L39.853 5.55112L38.5476 4.49464L40.2184 4.41696L43.0727 4.28368L44.0807 1.58197L44.6699 0L45.26 1.58197L46.2685 4.28368L49.1219 4.41696L50.794 4.49464L49.4869 5.55112L47.2546 7.35509L48.011 10.14L48.4542 11.7695Z" fill="url(#paint68_linear_3202_12102)"/>
<g id="Group_26">
<g id="Group_27">
<g id="Group_28">
<path id="Vector_79" d="M44.6707 1.80469L45.8244 4.90029L49.0937 5.05225L46.5367 7.11769L47.4045 10.3075L44.6707 8.48998L41.9356 10.3075L42.8034 7.11769L40.2468 5.05225L43.5165 4.90029L44.6707 1.80469Z" fill="url(#paint69_linear_3202_12102)"/>
<path id="Vector_80" d="M44.6708 1.80469L44.6699 1.80681V8.48998H44.6708L47.4045 10.3075L46.5368 7.11769L49.0938 5.05225L45.8245 4.90029L44.6708 1.80469Z" fill="url(#paint70_linear_3202_12102)"/>
<path id="Vector_81" d="M44.6699 6.51194L46.5402 7.11552L49.0938 5.05221L45.8245 4.90025L45.7611 4.73047L44.6699 6.44784V6.51194Z" fill="url(#paint71_linear_3202_12102)"/>
<path id="Vector_82" d="M49.0938 5.05225L45.8245 4.90029L44.6708 1.80469L44.6699 1.80681V6.50773L49.0938 5.05225Z" fill="url(#paint72_linear_3202_12102)"/>
<path id="Vector_83" d="M45.8245 4.90029L44.6708 1.80469L44.6699 1.80681V6.50773H44.6716L45.8245 4.90029Z" fill="url(#paint73_linear_3202_12102)"/>
<path id="Vector_84" d="M47.3974 10.3082L44.6699 6.51562V8.4949H44.6708L47.3974 10.3082Z" fill="url(#paint74_linear_3202_12102)"/>
</g>
<g id="Group_29">
<path id="Vector_85" d="M44.6694 1.80469L44.6698 1.80681V8.48998H44.6694L41.9356 10.3075L42.8034 7.11769L40.2468 5.05225L43.5165 4.90029L44.6694 1.80469Z" fill="url(#paint75_linear_3202_12102)"/>
<path id="Vector_86" d="M44.6698 6.51194L42.7996 7.11552L40.2468 5.05221L43.5165 4.90025L43.5787 4.73047L44.6698 6.44784V6.51194Z" fill="url(#paint76_linear_3202_12102)"/>
<path id="Vector_87" d="M40.2468 5.05225L43.5165 4.90029L44.6694 1.80469L44.6698 1.80681V6.50773L40.2468 5.05225Z" fill="url(#paint77_linear_3202_12102)"/>
<path id="Vector_88" d="M43.5166 4.90029L44.6695 1.80469L44.6699 1.80681V6.50773H44.6695L43.5149 4.90029H43.5166Z" fill="url(#paint78_linear_3202_12102)"/>
<path id="Vector_89" d="M41.9424 10.3082L44.6699 6.51562V8.4949H44.6694L41.9424 10.3082Z" fill="url(#paint79_linear_3202_12102)"/>
</g>
</g>
<path id="Vector_90" d="M44.6706 3.74219L45.2981 5.42773L47.0764 5.51007L45.6862 6.63363L46.1574 8.3701L44.6706 7.38068L43.1817 8.3701L43.6538 6.63363L42.2632 5.51007L44.0423 5.42773L44.6706 3.74219Z" fill="white"/>
</g>
</g>
<g id="Group_30">
<path id="Vector_91" d="M32.267 12.4221L31.1548 11.6818L29.2539 10.4178L27.353 11.6818L26.24 12.4221L26.5936 11.1241L27.1968 8.90667L25.4185 7.46986L24.3794 6.62943L25.7095 6.56703L27.9817 6.46219L28.7848 4.31016L29.2539 3.05078L29.7239 4.31016L30.5265 6.46219L32.7983 6.56703L34.1293 6.62943L33.0889 7.46986L31.3115 8.90667L31.9142 11.1241L32.267 12.4221Z" fill="#D27D00"/>
<path id="Vector_92" d="M32.267 12.2565L31.1548 11.5162L29.2539 10.2513L27.353 11.5162L26.24 12.2565L26.5936 10.958L27.1968 8.74065L25.4185 7.30385L24.3794 6.46341L25.7095 6.40186L27.9817 6.29575L28.7848 4.14372L29.2539 2.88477L29.7239 4.14372L30.5265 6.29575L32.7983 6.40186L34.1293 6.46341L33.0889 7.30385L31.3115 8.74065L31.9142 10.958L32.267 12.2565Z" fill="url(#paint80_linear_3202_12102)"/>
<g id="Group_31">
<g id="Group_32">
<g id="Group_33">
<path id="Vector_93" d="M29.2543 4.32227L30.1724 6.7867L32.776 6.90809L30.7398 8.55246L31.4312 11.0924L29.2543 9.64503L27.0774 11.0924L27.7671 8.55246L25.7322 6.90809L28.3353 6.7867L29.2543 4.32227Z" fill="url(#paint81_linear_3202_12102)"/>
<path id="Vector_94" d="M29.2543 4.32227L29.2539 4.32311V9.64503H29.2543L31.4312 11.0924L30.7399 8.55246L32.776 6.90809L30.1724 6.7867L29.2543 4.32227Z" fill="url(#paint82_linear_3202_12102)"/>
<path id="Vector_95" d="M29.2539 8.06894L30.7432 8.54901L32.776 6.90719L30.1724 6.78579L30.1229 6.65039L29.2539 8.01758V8.06894Z" fill="url(#paint83_linear_3202_12102)"/>
<path id="Vector_96" d="M32.776 6.90809L30.1724 6.7867L29.2543 4.32227L29.2539 4.32311V8.06603L32.776 6.90809Z" fill="url(#paint84_linear_3202_12102)"/>
<path id="Vector_97" d="M30.1724 6.7867L29.2543 4.32227L29.2539 4.32311V8.06603H29.2552L30.1724 6.7867Z" fill="url(#paint85_linear_3202_12102)"/>
<path id="Vector_98" d="M31.4253 11.0927L29.2539 8.07227V9.6483H29.2543L31.4253 11.0927Z" fill="url(#paint86_linear_3202_12102)"/>
</g>
<g id="Group_34">
<path id="Vector_99" d="M29.2535 4.32227L29.2539 4.32311V9.64503H29.2535L27.0774 11.0924L27.7671 8.55246L25.7322 6.90809L28.3353 6.7867L29.2535 4.32227Z" fill="url(#paint87_linear_3202_12102)"/>
<path id="Vector_100" d="M29.2539 8.06894L27.7654 8.54901L25.7322 6.90719L28.3353 6.78579L28.3853 6.65039L29.2539 8.01758V8.06894Z" fill="url(#paint88_linear_3202_12102)"/>
<path id="Vector_101" d="M25.7322 6.90809L28.3353 6.7867L29.2535 4.32227L29.2539 4.32311V8.06603L25.7322 6.90809Z" fill="url(#paint89_linear_3202_12102)"/>
<path id="Vector_102" d="M28.3353 6.7867L29.2534 4.32227L29.2539 4.32311V8.06603H29.2534L28.3345 6.7867H28.3353Z" fill="url(#paint90_linear_3202_12102)"/>
<path id="Vector_103" d="M27.0825 11.0927L29.2539 8.07227V9.6483H29.2535L27.0825 11.0927Z" fill="url(#paint91_linear_3202_12102)"/>
</g>
</g>
<path id="Vector_104" d="M29.2544 5.86523L29.7546 7.20739L31.17 7.27318L30.0633 8.16794L30.4387 9.55042L29.2544 8.76262L28.0691 9.55042L28.4454 8.16794L27.3379 7.27318L28.7545 7.20739L29.2544 5.86523Z" fill="white"/>
</g>
</g>
<path id="Vector_105" d="M30.9628 34.0497C30.497 33.6575 29.8544 33.379 29.0359 33.2147C28.2169 33.0509 27.1933 32.9686 25.9652 32.9686C24.7372 32.9686 23.6888 33.0509 22.8203 33.2147C21.9521 33.379 21.2323 33.6536 20.6602 34.0386C20.0886 34.424 19.6367 34.9415 19.3049 35.5905C18.9731 36.2399 18.7362 37.0566 18.5955 38.0409C18.4682 39.0112 18.4754 39.8211 18.6165 40.4701C18.7576 41.1195 19.0613 41.6403 19.5271 42.0325C19.9928 42.4252 20.635 42.7032 21.454 42.867C22.2726 43.0309 23.2966 43.1132 24.5246 43.1132C25.7527 43.1132 26.8048 43.0309 27.6801 42.867C28.5554 42.7032 29.2753 42.4247 29.8402 42.0325C30.4046 41.6403 30.8528 41.1195 31.185 40.4701C31.5168 39.8211 31.7461 39.0116 31.8734 38.0409C32.0145 37.0706 32.0145 36.2611 31.8734 35.6117C31.7323 34.9627 31.4286 34.4419 30.9628 34.0492V34.0497ZM27.5957 38.0413C27.5108 38.6122 27.3979 39.0868 27.2567 39.4645C27.1156 39.8427 26.9392 40.1386 26.7275 40.3529C26.5159 40.5669 26.2542 40.7205 25.9438 40.8131C25.633 40.906 25.2664 40.9523 24.8426 40.9523C24.4188 40.9523 24.0622 40.906 23.7733 40.8131C23.4839 40.7205 23.2613 40.5669 23.1063 40.3529C22.9509 40.139 22.8556 39.8432 22.8203 39.4645C22.785 39.0868 22.8098 38.6122 22.8946 38.0413C22.9795 37.4564 23.0887 36.9785 23.2226 36.6075C23.3566 36.2365 23.533 35.9406 23.7523 35.7195C23.9711 35.4984 24.2357 35.3447 24.5465 35.2594C24.8569 35.1736 25.2239 35.1312 25.6477 35.1312C26.0715 35.1312 26.4277 35.1736 26.717 35.2594C27.0064 35.3451 27.2286 35.4984 27.384 35.7195C27.539 35.9406 27.631 36.2369 27.6591 36.6075C27.6872 36.9789 27.6662 37.4564 27.5957 38.0413ZM43.3621 36.4789C43.3835 37.0069 43.3301 37.6775 43.2033 38.4908L42.7795 41.5512C42.7232 41.9226 42.656 42.2112 42.5783 42.4179C42.5006 42.6247 42.3562 42.7711 42.1441 42.8564C41.932 42.9417 41.6073 42.985 41.1697 42.985L38.8189 42.9638L39.5602 37.5702C39.6165 37.1423 39.5354 36.8426 39.3166 36.6716C39.0974 36.5005 38.8189 36.4148 38.48 36.4148C38.2397 36.4148 37.9999 36.4436 37.7601 36.5005C37.5199 36.5574 37.3292 36.6363 37.1885 36.7361L36.3413 42.9642H33.4824C32.8608 42.9642 32.6 42.6429 32.6987 42.0011L33.6731 34.8956C33.9696 34.8099 34.3682 34.728 34.8697 34.6494C35.3707 34.5713 35.9528 34.5034 36.6169 34.4461C37.28 34.3892 37.9932 34.3604 38.7559 34.3604C39.9273 34.3604 40.845 34.4245 41.509 34.5531C42.1722 34.6817 42.6418 34.9028 42.9173 35.2165C43.1924 35.5306 43.3411 35.9517 43.3621 36.4793V36.4789ZM54.8083 37.5918L54.5542 39.4111H48.6881C48.7444 39.0545 48.8645 38.7582 49.048 38.5227C49.2316 38.2871 49.5277 38.1695 49.9376 38.1695H51.3353L51.3988 37.7629C51.4412 37.3061 51.3916 36.953 51.2505 36.7034C51.1094 36.4538 50.7704 36.329 50.2341 36.329C49.7965 36.329 49.4508 36.3931 49.1963 36.5217C48.9422 36.6503 48.7481 36.8961 48.6137 37.2599C48.4793 37.6236 48.3559 38.1627 48.2433 38.8758C48.1727 39.4751 48.1727 39.9213 48.2433 40.2137C48.3139 40.5062 48.5008 40.6989 48.8044 40.7914C49.1081 40.8844 49.5634 40.9306 50.1703 40.9306C50.3958 40.9306 50.7276 40.9234 51.1657 40.909C51.6033 40.895 52.0552 40.8844 52.521 40.8767C52.9868 40.8699 53.3925 40.8555 53.7386 40.8339C54.0842 40.8126 54.2926 40.7948 54.3631 40.7804L54.2997 41.2299C54.2711 41.4438 54.2077 41.6832 54.109 41.9468C54.0103 42.2112 53.8688 42.4141 53.6852 42.5567C53.4311 42.7851 52.9334 42.9277 52.1921 42.9846C51.4508 43.0415 50.3954 43.0703 49.0262 43.0703C47.9812 43.0703 47.1307 43.013 46.4747 42.8993C45.8182 42.7851 45.3205 42.5784 44.9816 42.2787C44.6426 41.9791 44.4343 41.5618 44.357 41.027C44.2793 40.4917 44.297 39.8037 44.41 38.9615C44.5792 37.8057 44.8762 36.8961 45.2995 36.2327C45.7233 35.5692 46.3583 35.0951 47.2055 34.8095C48.0526 34.5242 49.203 34.3816 50.6575 34.3816C52.3517 34.3816 53.5059 34.6384 54.1199 35.152C54.734 35.6656 54.9633 36.4789 54.8083 37.5918ZM17.5413 24.8057C17.5627 25.3337 17.5098 26.004 17.3825 26.8177L16.9588 29.878C16.9025 30.2495 16.8353 30.5381 16.7576 30.7448C16.6799 30.9519 16.5354 31.098 16.3233 31.1833C16.1116 31.269 15.7865 31.3119 15.3489 31.3119L12.9982 31.2902L13.7395 25.897C13.7957 25.4687 13.7147 25.1695 13.4959 24.998C13.2766 24.8269 12.9982 24.7412 12.6592 24.7412C12.419 24.7412 12.1792 24.7701 11.9393 24.8265C11.6991 24.8834 11.5084 24.9623 11.3677 25.0621L10.5206 31.2902H7.66164C7.04004 31.2902 6.77922 30.9693 6.87792 30.3271L7.85232 23.2216C8.14884 23.1359 8.54742 23.054 9.0489 22.9754C9.54996 22.8973 10.1321 22.8294 10.7957 22.7721C11.4593 22.7152 12.1724 22.6868 12.9347 22.6868C14.1065 22.6868 15.0238 22.7509 15.6878 22.8795C16.351 23.0081 16.8206 23.2293 17.0961 23.5429C17.3716 23.857 17.5199 24.2781 17.5409 24.8057H17.5413ZM20.4107 30.1136L18.5048 22.7297H22.4435L23.1848 26.1114C23.2411 26.254 23.2869 26.386 23.3226 26.5074C23.3575 26.6288 23.3999 26.7425 23.4499 26.8499C23.499 26.9569 23.5519 27.0605 23.6086 27.1602C23.8627 26.5753 24.1202 25.9938 24.3814 25.4157C24.6427 24.838 24.9005 24.2637 25.1546 23.6928C25.2819 23.3931 25.4407 23.1613 25.6309 22.9971C25.8216 22.8332 26.1076 22.7513 26.4886 22.7513H28.0132L23.5024 31.2907H21.7447C21.3772 31.2907 21.0987 31.23 20.908 31.1086C20.7173 30.9876 20.5514 30.6557 20.4103 30.1132L20.4107 30.1136ZM35.5631 31.3123C34.8218 31.3692 33.7663 31.398 32.3971 31.398C31.3522 31.398 30.5017 31.3407 29.8452 31.227C29.1887 31.1128 28.691 30.9057 28.3521 30.6064C28.0132 30.3068 27.8048 29.8895 27.7276 29.3543C27.6499 28.819 27.6675 28.131 27.7805 27.2888C27.9497 26.133 28.2467 25.2234 28.67 24.56C29.0938 23.8965 29.7289 23.4224 30.576 23.1367C31.4231 22.8515 32.5735 22.7084 34.028 22.7084C35.7223 22.7084 36.8764 22.9652 37.4905 23.4788C38.1045 23.9924 38.3338 24.8057 38.1788 25.9187L37.9247 27.7379H32.0586C32.1149 27.3814 32.235 27.0851 32.4185 26.8499C32.6021 26.6144 32.8982 26.4968 33.3081 26.4968H34.7059L34.7693 26.0901C34.8117 25.6338 34.7621 25.2803 34.621 25.0307C34.4799 24.7811 34.141 24.6563 33.6046 24.6563C33.167 24.6563 32.8213 24.7204 32.5668 24.8486C32.3127 24.9772 32.1187 25.2234 31.9843 25.5872C31.8499 25.9509 31.7264 26.4896 31.6138 27.2031C31.5433 27.8024 31.5433 28.2485 31.6138 28.541C31.6844 28.8334 31.8713 29.0261 32.1749 29.1187C32.4782 29.2116 32.9335 29.2579 33.5408 29.2579C33.7663 29.2579 34.0981 29.2507 34.5362 29.2367C34.9738 29.2227 35.4257 29.2116 35.8915 29.2044C36.3573 29.1972 36.763 29.1832 37.1091 29.1616C37.4552 29.1399 37.6631 29.1225 37.7336 29.1081L37.6702 29.5576C37.6417 29.7715 37.5782 30.0105 37.4795 30.2745C37.3804 30.5389 37.2393 30.7418 37.0558 30.8844C36.8017 31.1128 36.304 31.2559 35.5627 31.3127L35.5631 31.3123ZM38.6761 30.2206C38.6266 29.9069 38.6442 29.4145 38.729 28.7439C39.2087 28.8869 39.682 29.0083 40.1478 29.1081C40.614 29.2078 41.0726 29.2791 41.5246 29.322C41.9765 29.3644 42.4066 29.3861 42.8165 29.3861C43.0282 29.3861 43.2789 29.3827 43.5683 29.3755C43.8577 29.3683 44.147 29.347 44.4364 29.3114C44.7258 29.2762 44.9765 29.1972 45.1882 29.0758C45.3999 28.9548 45.52 28.7868 45.5482 28.5728C45.5906 28.3449 45.5553 28.1912 45.4423 28.1127C45.3289 28.0346 45.1739 27.9951 44.9761 27.9951H42.4561C41.7644 27.9951 41.1642 27.9599 40.656 27.8882C40.1478 27.8169 39.7736 27.6174 39.5338 27.2888C39.2935 26.9607 39.2301 26.3975 39.3431 25.5982C39.4699 24.728 39.7769 24.0824 40.2641 23.6614C40.7513 23.2407 41.4112 22.9623 42.244 22.8264C43.0769 22.691 44.0794 22.6231 45.2512 22.6231C45.6746 22.6231 46.1651 22.6269 46.7229 22.6342C47.2802 22.6414 47.7427 22.6736 48.1102 22.7305C48.6041 22.7878 48.9817 22.8625 49.2433 22.9551C49.5041 23.048 49.6738 23.2085 49.7515 23.4368C49.8288 23.6652 49.8393 24.0145 49.7834 24.4857L49.6776 25.1491C49.6209 25.0065 49.4197 24.8999 49.0741 24.8282C48.728 24.7569 48.2937 24.7072 47.7716 24.6784C47.2492 24.6499 46.7057 24.6359 46.1412 24.6359H44.5532C44.2991 24.6359 44.066 24.6504 43.8543 24.6784C43.6426 24.7072 43.4734 24.7718 43.3461 24.8711C43.2188 24.9708 43.1344 25.1355 43.092 25.3635C43.0777 25.5345 43.0991 25.6559 43.1554 25.7272C43.2117 25.7985 43.3037 25.8448 43.4309 25.8664C43.5582 25.8881 43.6989 25.8987 43.8543 25.8987H46.7342C47.3554 25.8987 47.8884 25.9556 48.3332 26.0698C48.778 26.1844 49.0988 26.4195 49.2967 26.7761C49.4941 27.133 49.5436 27.6963 49.4449 28.4671C49.3177 29.3521 48.9716 29.9973 48.4071 30.404C47.8422 30.8106 47.1013 31.0712 46.1836 31.185C45.2659 31.2991 44.2067 31.356 43.0072 31.356C42.6397 31.356 42.2587 31.3488 41.8635 31.3348C41.4683 31.3204 41.0907 31.2953 40.7303 31.2597C40.3704 31.2244 40.0348 31.171 39.7244 31.0992C39.4418 31.0279 39.2091 30.9422 39.0256 30.8424C38.842 30.7427 38.7253 30.536 38.6761 30.2219V30.2206ZM54.9297 28.2515C54.8587 28.8224 54.8554 29.2397 54.9188 29.5032C54.9822 29.7677 55.2611 29.8993 55.7554 29.8993C55.8684 29.8993 56.0377 29.8853 56.2636 29.8564C56.4896 29.828 56.6517 29.7995 56.7508 29.7711L56.5601 31.1408C56.4467 31.1553 56.1611 31.1977 55.7025 31.269C55.2434 31.3403 54.6823 31.376 54.0187 31.376C53.143 31.376 52.4761 31.2902 52.0174 31.1192C51.5584 30.9481 51.2623 30.6557 51.1283 30.2418C50.9939 29.828 50.9762 29.2571 51.0754 28.5295L51.605 24.72H50.673L50.9481 22.7509H51.8801L52.0073 21.8307C52.0779 21.4168 52.1518 21.1137 52.2295 20.921C52.3068 20.7283 52.4446 20.6074 52.6424 20.5573C52.8402 20.5076 53.1363 20.4821 53.5319 20.4821H56.0099C55.9957 20.5539 55.9814 20.632 55.9675 20.7177C55.9532 20.8035 55.939 20.8964 55.9251 20.9962L55.671 22.7513H57.7676L57.4925 24.7204H55.4169L54.9301 28.2519L54.9297 28.2515ZM4.69098 19.5551H6.40584L4.86654 31.2902H0.69468C0.8925 29.8636 1.09368 28.4332 1.29822 26.9989C1.41708 26.167 1.5939 24.6992 1.7577 23.335H0L1.99668 19.5547H4.69098V19.5551Z" fill="#414042"/>
</g>
<defs>
<linearGradient id="paint0_linear_3202_12102" x1="79.4073" y1="27.4949" x2="-7.33845" y2="42.3364" gradientUnits="userSpaceOnUse">
<stop stop-color="#0131B9"/>
<stop offset="1" stop-color="#15B0F8"/>
</linearGradient>
<linearGradient id="paint1_linear_3202_12102" x1="67.0667" y1="35.3564" x2="10.325" y2="41.7802" gradientUnits="userSpaceOnUse">
<stop stop-color="#0131B9"/>
<stop offset="0.39" stop-color="#0B70D8"/>
<stop offset="1" stop-color="#15B0F8"/>
</linearGradient>
<linearGradient id="paint2_linear_3202_12102" x1="69.5319" y1="40.6555" x2="-5.39513" y2="53.0658" gradientUnits="userSpaceOnUse">
<stop stop-color="#0131B9"/>
<stop offset="0.58" stop-color="#0B70D8"/>
<stop offset="1" stop-color="#15B0F8"/>
</linearGradient>
<linearGradient id="paint3_linear_3202_12102" x1="-6.75149" y1="12.993" x2="55.1617" y2="42.201" gradientUnits="userSpaceOnUse">
<stop stop-color="#0131B9"/>
<stop offset="0.46" stop-color="#0B70D8"/>
<stop offset="1" stop-color="#15B0F8"/>
</linearGradient>
<linearGradient id="paint4_linear_3202_12102" x1="48.1813" y1="54.071" x2="35.7176" y2="-17.8024" gradientUnits="userSpaceOnUse">
<stop stop-color="#E62129"/>
<stop offset="1" stop-color="#FFF000"/>
</linearGradient>
<linearGradient id="paint5_linear_3202_12102" x1="39.7407" y1="44.0671" x2="33.818" y2="-2.74996" gradientUnits="userSpaceOnUse">
<stop stop-color="#E62129"/>
<stop offset="0.39" stop-color="#F28815"/>
<stop offset="1" stop-color="#FFF000"/>
</linearGradient>
<linearGradient id="paint6_linear_3202_12102" x1="65.7277" y1="-20.1061" x2="44.8933" y2="39.3973" gradientUnits="userSpaceOnUse">
<stop stop-color="#E62129"/>
<stop offset="0.46" stop-color="#F28815"/>
<stop offset="1" stop-color="#FFF000"/>
</linearGradient>
<linearGradient id="paint7_linear_3202_12102" x1="10.8969" y1="32.673" x2="104.573" y2="13.5349" gradientUnits="userSpaceOnUse">
<stop stop-color="#E62129"/>
<stop offset="1" stop-color="#FFF000"/>
</linearGradient>
<linearGradient id="paint8_linear_3202_12102" x1="21.7085" y1="20.718" x2="102.673" y2="4.73" gradientUnits="userSpaceOnUse">
<stop stop-color="#E62129"/>
<stop offset="0.58" stop-color="#F28815"/>
<stop offset="1" stop-color="#FFF000"/>
</linearGradient>
<linearGradient id="paint9_linear_3202_12102" x1="104.334" y1="42.3668" x2="43.901" y2="7.45014" gradientUnits="userSpaceOnUse">
<stop stop-color="#E62129"/>
<stop offset="0.46" stop-color="#F28815"/>
<stop offset="1" stop-color="#FFF000"/>
</linearGradient>
<linearGradient id="paint10_linear_3202_12102" x1="37.836" y1="51.7715" x2="25.9536" y2="-19.0976" gradientUnits="userSpaceOnUse">
<stop stop-color="#4A1877"/>
<stop offset="0.58" stop-color="#8926B7"/>
<stop offset="1" stop-color="#C835F8"/>
</linearGradient>
<linearGradient id="paint11_linear_3202_12102" x1="29.1919" y1="27.3048" x2="85.934" y2="20.8809" gradientUnits="userSpaceOnUse">
<stop stop-color="#E62129"/>
<stop offset="0.39" stop-color="#F28815"/>
<stop offset="1" stop-color="#FFF000"/>
</linearGradient>
<linearGradient id="paint12_linear_3202_12102" x1="41.0716" y1="2.7123" x2="62.4903" y2="82.9281" gradientUnits="userSpaceOnUse">
<stop stop-color="#045304"/>
<stop offset="1" stop-color="#66B100"/>
</linearGradient>
<linearGradient id="paint13_linear_3202_12102" x1="52.749" y1="13.4852" x2="58.8922" y2="66.7915" gradientUnits="userSpaceOnUse">
<stop stop-color="#045304"/>
<stop offset="0.39" stop-color="#358202"/>
<stop offset="1" stop-color="#66B100"/>
</linearGradient>
<linearGradient id="paint14_linear_3202_12102" x1="58.4224" y1="10.8907" x2="70.3047" y2="81.7594" gradientUnits="userSpaceOnUse">
<stop stop-color="#045304"/>
<stop offset="0.58" stop-color="#358202"/>
<stop offset="1" stop-color="#66B100"/>
</linearGradient>
<linearGradient id="paint15_linear_3202_12102" x1="27.4996" y1="83.1954" x2="60.4021" y2="23.8851" gradientUnits="userSpaceOnUse">
<stop stop-color="#045304"/>
<stop offset="0.46" stop-color="#358202"/>
<stop offset="1" stop-color="#66B100"/>
</linearGradient>
<linearGradient id="paint16_linear_3202_12102" x1="19.5725" y1="21.9164" x2="101.466" y2="45.6727" gradientUnits="userSpaceOnUse">
<stop stop-color="#4A1877"/>
<stop offset="1" stop-color="#C835F8"/>
</linearGradient>
<linearGradient id="paint17_linear_3202_12102" x1="33.6194" y1="20.4058" x2="85.824" y2="38.8226" gradientUnits="userSpaceOnUse">
<stop stop-color="#4A1877"/>
<stop offset="0.39" stop-color="#8926B7"/>
<stop offset="1" stop-color="#C835F8"/>
</linearGradient>
<linearGradient id="paint18_linear_3202_12102" x1="33.7144" y1="14.7355" x2="104.281" y2="35.6138" gradientUnits="userSpaceOnUse">
<stop stop-color="#4A1877"/>
<stop offset="0.58" stop-color="#8926B7"/>
<stop offset="1" stop-color="#C835F8"/>
</linearGradient>
<linearGradient id="paint19_linear_3202_12102" x1="88.3439" y1="71.6853" x2="46.7473" y2="19.6797" gradientUnits="userSpaceOnUse">
<stop stop-color="#4A1877"/>
<stop offset="0.46" stop-color="#8926B7"/>
<stop offset="1" stop-color="#C835F8"/>
</linearGradient>
<linearGradient id="paint20_linear_3202_12102" x1="58.0385" y1="5.0244" x2="35.1326" y2="81.8904" gradientUnits="userSpaceOnUse">
<stop stop-color="#0131B9"/>
<stop offset="1" stop-color="#15B0F8"/>
</linearGradient>
<linearGradient id="paint21_linear_3202_12102" x1="59.9341" y1="18.5523" x2="42.3191" y2="67.3805" gradientUnits="userSpaceOnUse">
<stop stop-color="#0131B9"/>
<stop offset="0.39" stop-color="#0B70D8"/>
<stop offset="1" stop-color="#15B0F8"/>
</linearGradient>
<linearGradient id="paint22_linear_3202_12102" x1="65.9613" y1="18.7448" x2="45.7467" y2="85.2877" gradientUnits="userSpaceOnUse">
<stop stop-color="#0131B9"/>
<stop offset="0.58" stop-color="#0B70D8"/>
<stop offset="1" stop-color="#15B0F8"/>
</linearGradient>
<linearGradient id="paint23_linear_3202_12102" x1="9.18229" y1="70.8806" x2="60.7091" y2="29.7696" gradientUnits="userSpaceOnUse">
<stop stop-color="#0131B9"/>
<stop offset="0.46" stop-color="#0B70D8"/>
<stop offset="1" stop-color="#15B0F8"/>
</linearGradient>
<linearGradient id="paint24_linear_3202_12102" x1="77.1898" y1="42.2316" x2="-4.70388" y2="18.4743" gradientUnits="userSpaceOnUse">
<stop stop-color="#045304"/>
<stop offset="1" stop-color="#66B100"/>
</linearGradient>
<linearGradient id="paint25_linear_3202_12102" x1="63.1426" y1="43.7414" x2="10.938" y2="25.3245" gradientUnits="userSpaceOnUse">
<stop stop-color="#045304"/>
<stop offset="0.39" stop-color="#358202"/>
<stop offset="1" stop-color="#66B100"/>
</linearGradient>
<linearGradient id="paint26_linear_3202_12102" x1="63.0482" y1="49.4115" x2="-7.51842" y2="28.5326" gradientUnits="userSpaceOnUse">
<stop stop-color="#045304"/>
<stop offset="0.58" stop-color="#358202"/>
<stop offset="1" stop-color="#66B100"/>
</linearGradient>
<linearGradient id="paint27_linear_3202_12102" x1="8.4184" y1="-7.53795" x2="50.0149" y2="44.468" gradientUnits="userSpaceOnUse">
<stop stop-color="#045304"/>
<stop offset="0.46" stop-color="#358202"/>
<stop offset="1" stop-color="#66B100"/>
</linearGradient>
<linearGradient id="paint28_linear_3202_12102" x1="38.5177" y1="55.0681" x2="50.9066" y2="-18.7115" gradientUnits="userSpaceOnUse">
<stop stop-color="#FFF000"/>
<stop offset="1" stop-color="#E62129"/>
</linearGradient>
<linearGradient id="paint29_linear_3202_12102" x1="34.4893" y1="48.0175" x2="51.9645" y2="-0.858435" gradientUnits="userSpaceOnUse">
<stop stop-color="#FFF000"/>
<stop offset="0.39" stop-color="#F28815"/>
<stop offset="1" stop-color="#E62129"/>
</linearGradient>
<linearGradient id="paint30_linear_3202_12102" x1="32.9286" y1="46.2143" x2="53.8094" y2="-20.1642" gradientUnits="userSpaceOnUse">
<stop stop-color="#FFF000"/>
<stop offset="0.58" stop-color="#F28815"/>
<stop offset="1" stop-color="#E62129"/>
</linearGradient>
<linearGradient id="paint31_linear_3202_12102" x1="82.1743" y1="-6.41838" x2="28.8508" y2="25.4874" gradientUnits="userSpaceOnUse">
<stop stop-color="#FFF000"/>
<stop offset="0.46" stop-color="#F28815"/>
<stop offset="1" stop-color="#E62129"/>
</linearGradient>
<linearGradient id="paint32_linear_3202_12102" x1="62.3926" y1="28.7454" x2="83.9999" y2="28.7454" gradientUnits="userSpaceOnUse">
<stop stop-color="#FFE742"/>
<stop offset="0.45" stop-color="#F8D52F"/>
<stop offset="0.66" stop-color="#E4AA0A"/>
<stop offset="0.84" stop-color="#FFCA00"/>
<stop offset="0.98" stop-color="#D36000"/>
</linearGradient>
<linearGradient id="paint33_linear_3202_12102" x1="73.1955" y1="25.6013" x2="73.1955" y2="36.4778" gradientUnits="userSpaceOnUse">
<stop stop-color="#FFE742"/>
<stop offset="0.45" stop-color="#F8D52F"/>
<stop offset="0.66" stop-color="#E4AA0A"/>
<stop offset="0.84" stop-color="#FFCA00"/>
<stop offset="0.98" stop-color="#D36000"/>
</linearGradient>
<linearGradient id="paint34_linear_3202_12102" x1="73.1958" y1="29.048" x2="80.9998" y2="29.048" gradientUnits="userSpaceOnUse">
<stop stop-color="#FFE742"/>
<stop offset="0.45" stop-color="#F8D52F"/>
<stop offset="0.66" stop-color="#E4AA0A"/>
<stop offset="0.84" stop-color="#FFCA00"/>
<stop offset="0.98" stop-color="#D36000"/>
</linearGradient>
<linearGradient id="paint35_linear_3202_12102" x1="81.1367" y1="34.1676" x2="77.3397" y2="29.0096" gradientUnits="userSpaceOnUse">
<stop stop-color="#FFE742"/>
<stop offset="0.45" stop-color="#F8D52F"/>
<stop offset="0.66" stop-color="#E4AA0A"/>
<stop offset="0.84" stop-color="#FFCA00"/>
<stop offset="0.98" stop-color="#D36000"/>
</linearGradient>
<linearGradient id="paint36_linear_3202_12102" x1="77.2366" y1="28.8014" x2="75.6882" y2="26.1652" gradientUnits="userSpaceOnUse">
<stop stop-color="#FFE742"/>
<stop offset="0.45" stop-color="#F8D52F"/>
<stop offset="0.66" stop-color="#E4AA0A"/>
<stop offset="0.84" stop-color="#FFCA00"/>
<stop offset="0.98" stop-color="#D36000"/>
</linearGradient>
<linearGradient id="paint37_linear_3202_12102" x1="76.9813" y1="24.0835" x2="72.4912" y2="25.9558" gradientUnits="userSpaceOnUse">
<stop stop-color="#FFE742"/>
<stop offset="0.45" stop-color="#F8D52F"/>
<stop offset="0.66" stop-color="#E4AA0A"/>
<stop offset="0.84" stop-color="#FFCA00"/>
<stop offset="0.98" stop-color="#D36000"/>
</linearGradient>
<linearGradient id="paint38_linear_3202_12102" x1="69.6019" y1="41.5178" x2="75.8456" y2="33.0469" gradientUnits="userSpaceOnUse">
<stop stop-color="#FFE742"/>
<stop offset="0.45" stop-color="#F8D52F"/>
<stop offset="0.66" stop-color="#E4AA0A"/>
<stop offset="0.84" stop-color="#FFCA00"/>
<stop offset="0.98" stop-color="#D36000"/>
</linearGradient>
<linearGradient id="paint39_linear_3202_12102" x1="73.1959" y1="29.048" x2="65.3906" y2="29.048" gradientUnits="userSpaceOnUse">
<stop stop-color="#FFE742"/>
<stop offset="0.45" stop-color="#F8D52F"/>
<stop offset="0.66" stop-color="#E4AA0A"/>
<stop offset="0.84" stop-color="#FFCA00"/>
<stop offset="0.98" stop-color="#D36000"/>
</linearGradient>
<linearGradient id="paint40_linear_3202_12102" x1="66.0807" y1="32.3518" x2="68.3938" y2="29.6815" gradientUnits="userSpaceOnUse">
<stop stop-color="#FFE742"/>
<stop offset="0.45" stop-color="#F8D52F"/>
<stop offset="0.66" stop-color="#E4AA0A"/>
<stop offset="0.84" stop-color="#FFCA00"/>
<stop offset="0.98" stop-color="#D36000"/>
</linearGradient>
<linearGradient id="paint41_linear_3202_12102" x1="69.1542" y1="28.8014" x2="70.7026" y2="26.1657" gradientUnits="userSpaceOnUse">
<stop stop-color="#FFE742"/>
<stop offset="0.45" stop-color="#F8D52F"/>
<stop offset="0.66" stop-color="#E4AA0A"/>
<stop offset="0.84" stop-color="#FFCA00"/>
<stop offset="0.98" stop-color="#D36000"/>
</linearGradient>
<linearGradient id="paint42_linear_3202_12102" x1="68.4548" y1="25.1786" x2="73.6011" y2="25.7281" gradientUnits="userSpaceOnUse">
<stop stop-color="#FFE742"/>
<stop offset="0.45" stop-color="#F8D52F"/>
<stop offset="0.66" stop-color="#E4AA0A"/>
<stop offset="0.84" stop-color="#FFCA00"/>
<stop offset="0.98" stop-color="#D36000"/>
</linearGradient>
<linearGradient id="paint43_linear_3202_12102" x1="75.4088" y1="37.8721" x2="71.3028" y2="33.8093" gradientUnits="userSpaceOnUse">
<stop stop-color="#FFE742"/>
<stop offset="0.45" stop-color="#F8D52F"/>
<stop offset="0.66" stop-color="#E4AA0A"/>
<stop offset="0.84" stop-color="#FFCA00"/>
<stop offset="0.98" stop-color="#D36000"/>
</linearGradient>
<linearGradient id="paint44_linear_3202_12102" x1="53.3984" y1="48.2659" x2="69.7007" y2="48.2659" gradientUnits="userSpaceOnUse">
<stop stop-color="#FFE742"/>
<stop offset="0.45" stop-color="#F8D52F"/>
<stop offset="0.66" stop-color="#E4AA0A"/>
<stop offset="0.84" stop-color="#FFCA00"/>
<stop offset="0.98" stop-color="#D36000"/>
</linearGradient>
<linearGradient id="paint45_linear_3202_12102" x1="61.5495" y1="45.8955" x2="61.5495" y2="54.1016" gradientUnits="userSpaceOnUse">
<stop stop-color="#FFE742"/>
<stop offset="0.45" stop-color="#F8D52F"/>
<stop offset="0.66" stop-color="#E4AA0A"/>
<stop offset="0.84" stop-color="#FFCA00"/>
<stop offset="0.98" stop-color="#D36000"/>
</linearGradient>
<linearGradient id="paint46_linear_3202_12102" x1="61.5491" y1="48.4957" x2="67.4379" y2="48.4957" gradientUnits="userSpaceOnUse">
<stop stop-color="#FFE742"/>
<stop offset="0.45" stop-color="#F8D52F"/>
<stop offset="0.66" stop-color="#E4AA0A"/>
<stop offset="0.84" stop-color="#FFCA00"/>
<stop offset="0.98" stop-color="#D36000"/>
</linearGradient>
<linearGradient id="paint47_linear_3202_12102" x1="67.5408" y1="52.3591" x2="64.6763" y2="48.4676" gradientUnits="userSpaceOnUse">
<stop stop-color="#FFE742"/>
<stop offset="0.45" stop-color="#F8D52F"/>
<stop offset="0.66" stop-color="#E4AA0A"/>
<stop offset="0.84" stop-color="#FFCA00"/>
<stop offset="0.98" stop-color="#D36000"/>
</linearGradient>
<linearGradient id="paint48_linear_3202_12102" x1="64.5987" y1="48.3098" x2="63.43" y2="46.3209" gradientUnits="userSpaceOnUse">
<stop stop-color="#FFE742"/>
<stop offset="0.45" stop-color="#F8D52F"/>
<stop offset="0.66" stop-color="#E4AA0A"/>
<stop offset="0.84" stop-color="#FFCA00"/>
<stop offset="0.98" stop-color="#D36000"/>
</linearGradient>
<linearGradient id="paint49_linear_3202_12102" x1="64.4055" y1="44.7498" x2="61.0176" y2="46.1627" gradientUnits="userSpaceOnUse">
<stop stop-color="#FFE742"/>
<stop offset="0.45" stop-color="#F8D52F"/>
<stop offset="0.66" stop-color="#E4AA0A"/>
<stop offset="0.84" stop-color="#FFCA00"/>
<stop offset="0.98" stop-color="#D36000"/>
</linearGradient>
<linearGradient id="paint50_linear_3202_12102" x1="58.8375" y1="57.9037" x2="63.5488" y2="51.512" gradientUnits="userSpaceOnUse">
<stop stop-color="#FFE742"/>
<stop offset="0.45" stop-color="#F8D52F"/>
<stop offset="0.66" stop-color="#E4AA0A"/>
<stop offset="0.84" stop-color="#FFCA00"/>
<stop offset="0.98" stop-color="#D36000"/>
</linearGradient>
<linearGradient id="paint51_linear_3202_12102" x1="61.549" y1="48.4957" x2="55.6606" y2="48.4957" gradientUnits="userSpaceOnUse">
<stop stop-color="#FFE742"/>
<stop offset="0.45" stop-color="#F8D52F"/>
<stop offset="0.66" stop-color="#E4AA0A"/>
<stop offset="0.84" stop-color="#FFCA00"/>
<stop offset="0.98" stop-color="#D36000"/>
</linearGradient>
<linearGradient id="paint52_linear_3202_12102" x1="56.1814" y1="50.9885" x2="57.9262" y2="48.9744" gradientUnits="userSpaceOnUse">
<stop stop-color="#FFE742"/>
<stop offset="0.45" stop-color="#F8D52F"/>
<stop offset="0.66" stop-color="#E4AA0A"/>
<stop offset="0.84" stop-color="#FFCA00"/>
<stop offset="0.98" stop-color="#D36000"/>
</linearGradient>
<linearGradient id="paint53_linear_3202_12102" x1="58.4998" y1="48.3098" x2="59.6681" y2="46.3209" gradientUnits="userSpaceOnUse">
<stop stop-color="#FFE742"/>
<stop offset="0.45" stop-color="#F8D52F"/>
<stop offset="0.66" stop-color="#E4AA0A"/>
<stop offset="0.84" stop-color="#FFCA00"/>
<stop offset="0.98" stop-color="#D36000"/>
</linearGradient>
<linearGradient id="paint54_linear_3202_12102" x1="57.9729" y1="45.5763" x2="61.855" y2="45.9907" gradientUnits="userSpaceOnUse">
<stop stop-color="#FFE742"/>
<stop offset="0.45" stop-color="#F8D52F"/>
<stop offset="0.66" stop-color="#E4AA0A"/>
<stop offset="0.84" stop-color="#FFCA00"/>
<stop offset="0.98" stop-color="#D36000"/>
</linearGradient>
<linearGradient id="paint55_linear_3202_12102" x1="63.2185" y1="55.1532" x2="60.1206" y2="52.0874" gradientUnits="userSpaceOnUse">
<stop stop-color="#FFE742"/>
<stop offset="0.45" stop-color="#F8D52F"/>
<stop offset="0.66" stop-color="#E4AA0A"/>
<stop offset="0.84" stop-color="#FFCA00"/>
<stop offset="0.98" stop-color="#D36000"/>
</linearGradient>
<linearGradient id="paint56_linear_3202_12102" x1="54.0085" y1="8.92025" x2="70.3113" y2="8.92025" gradientUnits="userSpaceOnUse">
<stop stop-color="#FFE742"/>
<stop offset="0.45" stop-color="#F8D52F"/>
<stop offset="0.66" stop-color="#E4AA0A"/>
<stop offset="0.84" stop-color="#FFCA00"/>
<stop offset="0.98" stop-color="#D36000"/>
</linearGradient>
<linearGradient id="paint57_linear_3202_12102" x1="62.1592" y1="6.54934" x2="62.1592" y2="14.7551" gradientUnits="userSpaceOnUse">
<stop stop-color="#FFE742"/>
<stop offset="0.45" stop-color="#F8D52F"/>
<stop offset="0.66" stop-color="#E4AA0A"/>
<stop offset="0.84" stop-color="#FFCA00"/>
<stop offset="0.98" stop-color="#D36000"/>
</linearGradient>
<linearGradient id="paint58_linear_3202_12102" x1="62.1597" y1="9.1496" x2="68.0477" y2="9.1496" gradientUnits="userSpaceOnUse">
<stop stop-color="#FFE742"/>
<stop offset="0.45" stop-color="#F8D52F"/>
<stop offset="0.66" stop-color="#E4AA0A"/>
<stop offset="0.84" stop-color="#FFCA00"/>
<stop offset="0.98" stop-color="#D36000"/>
</linearGradient>
<linearGradient id="paint59_linear_3202_12102" x1="68.1518" y1="13.0131" x2="65.2865" y2="9.12078" gradientUnits="userSpaceOnUse">
<stop stop-color="#FFE742"/>
<stop offset="0.45" stop-color="#F8D52F"/>
<stop offset="0.66" stop-color="#E4AA0A"/>
<stop offset="0.84" stop-color="#FFCA00"/>
<stop offset="0.98" stop-color="#D36000"/>
</linearGradient>
<linearGradient id="paint60_linear_3202_12102" x1="65.2084" y1="8.96411" x2="64.0402" y2="6.97476" gradientUnits="userSpaceOnUse">
<stop stop-color="#FFE742"/>
<stop offset="0.45" stop-color="#F8D52F"/>
<stop offset="0.66" stop-color="#E4AA0A"/>
<stop offset="0.84" stop-color="#FFCA00"/>
<stop offset="0.98" stop-color="#D36000"/>
</linearGradient>
<linearGradient id="paint61_linear_3202_12102" x1="65.0165" y1="5.40414" x2="61.6282" y2="6.81701" gradientUnits="userSpaceOnUse">
<stop stop-color="#FFE742"/>
<stop offset="0.45" stop-color="#F8D52F"/>
<stop offset="0.66" stop-color="#E4AA0A"/>
<stop offset="0.84" stop-color="#FFCA00"/>
<stop offset="0.98" stop-color="#D36000"/>
</linearGradient>
<linearGradient id="paint62_linear_3202_12102" x1="59.4469" y1="18.5589" x2="64.1589" y2="12.1663" gradientUnits="userSpaceOnUse">
<stop stop-color="#FFE742"/>
<stop offset="0.45" stop-color="#F8D52F"/>
<stop offset="0.66" stop-color="#E4AA0A"/>
<stop offset="0.84" stop-color="#FFCA00"/>
<stop offset="0.98" stop-color="#D36000"/>
</linearGradient>
<linearGradient id="paint63_linear_3202_12102" x1="62.1596" y1="9.1496" x2="56.2708" y2="9.1496" gradientUnits="userSpaceOnUse">
<stop stop-color="#FFE742"/>
<stop offset="0.45" stop-color="#F8D52F"/>
<stop offset="0.66" stop-color="#E4AA0A"/>
<stop offset="0.84" stop-color="#FFCA00"/>
<stop offset="0.98" stop-color="#D36000"/>
</linearGradient>
<linearGradient id="paint64_linear_3202_12102" x1="56.7916" y1="11.6426" x2="58.5363" y2="9.62802" gradientUnits="userSpaceOnUse">
<stop stop-color="#FFE742"/>
<stop offset="0.45" stop-color="#F8D52F"/>
<stop offset="0.66" stop-color="#E4AA0A"/>
<stop offset="0.84" stop-color="#FFCA00"/>
<stop offset="0.98" stop-color="#D36000"/>
</linearGradient>
<linearGradient id="paint65_linear_3202_12102" x1="59.1104" y1="8.96411" x2="60.2786" y2="6.97519" gradientUnits="userSpaceOnUse">
<stop stop-color="#FFE742"/>
<stop offset="0.45" stop-color="#F8D52F"/>
<stop offset="0.66" stop-color="#E4AA0A"/>
<stop offset="0.84" stop-color="#FFCA00"/>
<stop offset="0.98" stop-color="#D36000"/>
</linearGradient>
<linearGradient id="paint66_linear_3202_12102" x1="58.5826" y1="6.23057" x2="62.4655" y2="6.645" gradientUnits="userSpaceOnUse">
<stop stop-color="#FFE742"/>
<stop offset="0.45" stop-color="#F8D52F"/>
<stop offset="0.66" stop-color="#E4AA0A"/>
<stop offset="0.84" stop-color="#FFCA00"/>
<stop offset="0.98" stop-color="#D36000"/>
</linearGradient>
<linearGradient id="paint67_linear_3202_12102" x1="63.83" y1="15.8079" x2="60.7316" y2="12.7417" gradientUnits="userSpaceOnUse">
<stop stop-color="#FFE742"/>
<stop offset="0.45" stop-color="#F8D52F"/>
<stop offset="0.66" stop-color="#E4AA0A"/>
<stop offset="0.84" stop-color="#FFCA00"/>
<stop offset="0.98" stop-color="#D36000"/>
</linearGradient>
<linearGradient id="paint68_linear_3202_12102" x1="38.5476" y1="5.88475" x2="50.794" y2="5.88475" gradientUnits="userSpaceOnUse">
<stop stop-color="#FFE742"/>
<stop offset="0.45" stop-color="#F8D52F"/>
<stop offset="0.66" stop-color="#E4AA0A"/>
<stop offset="0.84" stop-color="#FFCA00"/>
<stop offset="0.98" stop-color="#D36000"/>
</linearGradient>
<linearGradient id="paint69_linear_3202_12102" x1="44.6703" y1="4.10273" x2="44.6703" y2="10.2672" gradientUnits="userSpaceOnUse">
<stop stop-color="#FFE742"/>
<stop offset="0.45" stop-color="#F8D52F"/>
<stop offset="0.66" stop-color="#E4AA0A"/>
<stop offset="0.84" stop-color="#FFCA00"/>
<stop offset="0.98" stop-color="#D36000"/>
</linearGradient>
<linearGradient id="paint70_linear_3202_12102" x1="44.6699" y1="6.05611" x2="49.0938" y2="6.05611" gradientUnits="userSpaceOnUse">
<stop stop-color="#FFE742"/>
<stop offset="0.45" stop-color="#F8D52F"/>
<stop offset="0.66" stop-color="#E4AA0A"/>
<stop offset="0.84" stop-color="#FFCA00"/>
<stop offset="0.98" stop-color="#D36000"/>
</linearGradient>
<linearGradient id="paint71_linear_3202_12102" x1="49.1719" y1="8.95939" x2="47.019" y2="6.03485" gradientUnits="userSpaceOnUse">
<stop stop-color="#FFE742"/>
<stop offset="0.45" stop-color="#F8D52F"/>
<stop offset="0.66" stop-color="#E4AA0A"/>
<stop offset="0.84" stop-color="#FFCA00"/>
<stop offset="0.98" stop-color="#D36000"/>
</linearGradient>
<linearGradient id="paint72_linear_3202_12102" x1="46.9606" y1="5.91688" x2="46.0829" y2="4.42277" gradientUnits="userSpaceOnUse">
<stop stop-color="#FFE742"/>
<stop offset="0.45" stop-color="#F8D52F"/>
<stop offset="0.66" stop-color="#E4AA0A"/>
<stop offset="0.84" stop-color="#FFCA00"/>
<stop offset="0.98" stop-color="#D36000"/>
</linearGradient>
<linearGradient id="paint73_linear_3202_12102" x1="46.8166" y1="3.24234" x2="44.2704" y2="4.30419" gradientUnits="userSpaceOnUse">
<stop stop-color="#FFE742"/>
<stop offset="0.45" stop-color="#F8D52F"/>
<stop offset="0.66" stop-color="#E4AA0A"/>
<stop offset="0.84" stop-color="#FFCA00"/>
<stop offset="0.98" stop-color="#D36000"/>
</linearGradient>
<linearGradient id="paint74_linear_3202_12102" x1="42.6329" y1="13.1241" x2="46.1719" y2="8.32337" gradientUnits="userSpaceOnUse">
<stop stop-color="#FFE742"/>
<stop offset="0.45" stop-color="#F8D52F"/>
<stop offset="0.66" stop-color="#E4AA0A"/>
<stop offset="0.84" stop-color="#FFCA00"/>
<stop offset="0.98" stop-color="#D36000"/>
</linearGradient>
<linearGradient id="paint75_linear_3202_12102" x1="44.6694" y1="6.05611" x2="40.2464" y2="6.05611" gradientUnits="userSpaceOnUse">
<stop stop-color="#FFE742"/>
<stop offset="0.45" stop-color="#F8D52F"/>
<stop offset="0.66" stop-color="#E4AA0A"/>
<stop offset="0.84" stop-color="#FFCA00"/>
<stop offset="0.98" stop-color="#D36000"/>
</linearGradient>
<linearGradient id="paint76_linear_3202_12102" x1="40.637" y1="7.92922" x2="41.9481" y2="6.4157" gradientUnits="userSpaceOnUse">
<stop stop-color="#FFE742"/>
<stop offset="0.45" stop-color="#F8D52F"/>
<stop offset="0.66" stop-color="#E4AA0A"/>
<stop offset="0.84" stop-color="#FFCA00"/>
<stop offset="0.98" stop-color="#D36000"/>
</linearGradient>
<linearGradient id="paint77_linear_3202_12102" x1="42.3792" y1="5.91688" x2="43.2568" y2="4.42277" gradientUnits="userSpaceOnUse">
<stop stop-color="#FFE742"/>
<stop offset="0.45" stop-color="#F8D52F"/>
<stop offset="0.66" stop-color="#E4AA0A"/>
<stop offset="0.84" stop-color="#FFCA00"/>
<stop offset="0.98" stop-color="#D36000"/>
</linearGradient>
<linearGradient id="paint78_linear_3202_12102" x1="41.9836" y1="3.86333" x2="44.8995" y2="4.17468" gradientUnits="userSpaceOnUse">
<stop stop-color="#FFE742"/>
<stop offset="0.45" stop-color="#F8D52F"/>
<stop offset="0.66" stop-color="#E4AA0A"/>
<stop offset="0.84" stop-color="#FFCA00"/>
<stop offset="0.98" stop-color="#D36000"/>
</linearGradient>
<linearGradient id="paint79_linear_3202_12102" x1="45.924" y1="11.0578" x2="43.5972" y2="8.75507" gradientUnits="userSpaceOnUse">
<stop stop-color="#FFE742"/>
<stop offset="0.45" stop-color="#F8D52F"/>
<stop offset="0.66" stop-color="#E4AA0A"/>
<stop offset="0.84" stop-color="#FFCA00"/>
<stop offset="0.98" stop-color="#D36000"/>
</linearGradient>
<linearGradient id="paint80_linear_3202_12102" x1="24.3794" y1="7.57041" x2="34.1293" y2="7.57041" gradientUnits="userSpaceOnUse">
<stop stop-color="#FFE742"/>
<stop offset="0.45" stop-color="#F8D52F"/>
<stop offset="0.66" stop-color="#E4AA0A"/>
<stop offset="0.84" stop-color="#FFCA00"/>
<stop offset="0.98" stop-color="#D36000"/>
</linearGradient>
<linearGradient id="paint81_linear_3202_12102" x1="29.2539" y1="6.15212" x2="29.2539" y2="11.0602" gradientUnits="userSpaceOnUse">
<stop stop-color="#FFE742"/>
<stop offset="0.45" stop-color="#F8D52F"/>
<stop offset="0.66" stop-color="#E4AA0A"/>
<stop offset="0.84" stop-color="#FFCA00"/>
<stop offset="0.98" stop-color="#D36000"/>
</linearGradient>
<linearGradient id="paint82_linear_3202_12102" x1="29.2539" y1="7.70736" x2="32.776" y2="7.70736" gradientUnits="userSpaceOnUse">
<stop stop-color="#FFE742"/>
<stop offset="0.45" stop-color="#F8D52F"/>
<stop offset="0.66" stop-color="#E4AA0A"/>
<stop offset="0.84" stop-color="#FFCA00"/>
<stop offset="0.98" stop-color="#D36000"/>
</linearGradient>
<linearGradient id="paint83_linear_3202_12102" x1="32.8378" y1="10.0172" x2="31.1238" y2="7.68889" gradientUnits="userSpaceOnUse">
<stop stop-color="#FFE742"/>
<stop offset="0.45" stop-color="#F8D52F"/>
<stop offset="0.66" stop-color="#E4AA0A"/>
<stop offset="0.84" stop-color="#FFCA00"/>
<stop offset="0.98" stop-color="#D36000"/>
</linearGradient>
<linearGradient id="paint84_linear_3202_12102" x1="31.078" y1="7.59657" x2="30.3791" y2="6.40685" gradientUnits="userSpaceOnUse">
<stop stop-color="#FFE742"/>
<stop offset="0.45" stop-color="#F8D52F"/>
<stop offset="0.66" stop-color="#E4AA0A"/>
<stop offset="0.84" stop-color="#FFCA00"/>
<stop offset="0.98" stop-color="#D36000"/>
</linearGradient>
<linearGradient id="paint85_linear_3202_12102" x1="30.9625" y1="5.46662" x2="28.9363" y2="6.31209" gradientUnits="userSpaceOnUse">
<stop stop-color="#FFE742"/>
<stop offset="0.45" stop-color="#F8D52F"/>
<stop offset="0.66" stop-color="#E4AA0A"/>
<stop offset="0.84" stop-color="#FFCA00"/>
<stop offset="0.98" stop-color="#D36000"/>
</linearGradient>
<linearGradient id="paint86_linear_3202_12102" x1="27.6319" y1="13.3348" x2="30.4499" y2="9.51154" gradientUnits="userSpaceOnUse">
<stop stop-color="#FFE742"/>
<stop offset="0.45" stop-color="#F8D52F"/>
<stop offset="0.66" stop-color="#E4AA0A"/>
<stop offset="0.84" stop-color="#FFCA00"/>
<stop offset="0.98" stop-color="#D36000"/>
</linearGradient>
<linearGradient id="paint87_linear_3202_12102" x1="29.2539" y1="7.70736" x2="25.7318" y2="7.70736" gradientUnits="userSpaceOnUse">
<stop stop-color="#FFE742"/>
<stop offset="0.45" stop-color="#F8D52F"/>
<stop offset="0.66" stop-color="#E4AA0A"/>
<stop offset="0.84" stop-color="#FFCA00"/>
<stop offset="0.98" stop-color="#D36000"/>
</linearGradient>
<linearGradient id="paint88_linear_3202_12102" x1="26.0426" y1="9.19844" x2="27.0867" y2="7.99284" gradientUnits="userSpaceOnUse">
<stop stop-color="#FFE742"/>
<stop offset="0.45" stop-color="#F8D52F"/>
<stop offset="0.66" stop-color="#E4AA0A"/>
<stop offset="0.84" stop-color="#FFCA00"/>
<stop offset="0.98" stop-color="#D36000"/>
</linearGradient>
<linearGradient id="paint89_linear_3202_12102" x1="27.4298" y1="7.59657" x2="28.1287" y2="6.40685" gradientUnits="userSpaceOnUse">
<stop stop-color="#FFE742"/>
<stop offset="0.45" stop-color="#F8D52F"/>
<stop offset="0.66" stop-color="#E4AA0A"/>
<stop offset="0.84" stop-color="#FFCA00"/>
<stop offset="0.98" stop-color="#D36000"/>
</linearGradient>
<linearGradient id="paint90_linear_3202_12102" x1="27.1148" y1="5.96112" x2="29.4367" y2="6.20886" gradientUnits="userSpaceOnUse">
<stop stop-color="#FFE742"/>
<stop offset="0.45" stop-color="#F8D52F"/>
<stop offset="0.66" stop-color="#E4AA0A"/>
<stop offset="0.84" stop-color="#FFCA00"/>
<stop offset="0.98" stop-color="#D36000"/>
</linearGradient>
<linearGradient id="paint91_linear_3202_12102" x1="30.2531" y1="11.6895" x2="28.3996" y2="9.8555" gradientUnits="userSpaceOnUse">
<stop stop-color="#FFE742"/>
<stop offset="0.45" stop-color="#F8D52F"/>
<stop offset="0.66" stop-color="#E4AA0A"/>
<stop offset="0.84" stop-color="#FFCA00"/>
<stop offset="0.98" stop-color="#D36000"/>
</linearGradient>
<clipPath id="clip0_3202_12102">
<rect width="84" height="62" fill="white"/>
</clipPath>
</defs>
</svg>
